:SAMPLES-PER-SECOND 30
:FULLY-SPECIFIED
:DEGREES
326
root  32.8191 39.3095 -12.4953 -0.302277 -32.8028 -0.840133
RightUpLeg  -11.3201 -33.6284 -12.3875
RightLeg  10.1886 -23.5144 2.20138
RightFoot  2.21664 -0.605234 5.30503
RightToes  0.00048216 0.542163 -0.142577
Spine  26.9842 -1.65393 -0.595905
Spine1  3.38245 -3.47123 6.332
HEad  -20.071 -19.6336 11.307
LeftShoulder1  10.3659 -17.2614 -43.4147
LeftArm  4.65686 16.1747 -34.7561
LeftForeArm  137.281 -76.4754 -133.479
LeftHand  -0.25398 0.0180481 5.50724
RightShoulder  5.04376 9.17972 33.8191
RightArm  12.1853 -20.0746 36.7408
RightForeArm  92.6206 69.6425 144.363
RightHand  -12.5653 23.6516 -47.7012
LeftUpLeg  8.26246 17.2789 22.8654
LeftLeg  10.0739 49.759 0.592659
LeftFoot  1.01386 0.799392 -7.37863
LeftToes  1.06245e-005 4.65856e-005 -8.18504e-006
327
root  31.3446 39.2555 -12.417 1.12054 -39.0869 -2.00226
RightUpLeg  -14.8554 -39.5804 -6.37532
RightLeg  12.5346 -13.5339 1.95141
RightFoot  3.26188 -0.461869 3.73843
RightToes  0.00048216 0.542163 -0.142577
Spine  26.3915 -1.99006 0.604939
Spine1  3.17659 -3.55001 6.27191
HEad  -19.2948 -16.1328 9.96786
LeftShoulder1  10.3735 -16.9306 -44.1934
LeftArm  3.34346 17.9377 -33.9802
LeftForeArm  139.163 -75.9737 -135.623
LeftHand  -0.25398 0.0180481 5.50724
RightShoulder  5.25825 9.33437 34.9941
RightArm  12.7244 -20.0265 36.926
RightForeArm  93.4395 70.1622 143.39
RightHand  -12.6322 23.8198 -47.6775
LeftUpLeg  9.68556 16.0152 23.2975
LeftLeg  9.95927 44.8043 1.90395
LeftFoot  -5.02392 0.345771 -5.43196
LeftToes  1.06245e-005 4.65856e-005 -8.18504e-006
328
root  29.9968 39.2373 -12.4027 1.91769 -46.2797 -3.46368
RightUpLeg  -18.2531 -40.1076 -0.0305663
RightLeg  15.7934 -5.27951 0.311719
RightFoot  1.45512 0.0573538 -0.469856
RightToes  0.00048216 0.542163 -0.142577
Spine  27.2526 -1.83713 1.84478
Spine1  3.46868 -3.03559 5.91916
HEad  -19.2103 -12.6377 9.19294
LeftShoulder1  10.3953 -16.6692 -44.8941
LeftArm  2.0961 18.45 -33.3291
LeftForeArm  139.369 -75.8396 -136.1
LeftHand  -0.25398 0.0180481 5.50724
RightShoulder  5.56781 9.81268 35.8352
RightArm  13.3707 -18.9727 36.7524
RightForeArm  93.2138 70.8325 141.933
RightHand  -12.348 23.5049 -47.1832
LeftUpLeg  11.094 15.0549 22.7416
LeftLeg  11.2181 35.5977 3.48848
LeftFoot  -10.3017 0.0730072 -1.98637
LeftToes  1.06245e-005 4.65856e-005 -8.18504e-006
329
root  28.7359 39.2363 -12.396 1.99826 -52.3984 -4.43059
RightUpLeg  -18.07 -34.7413 2.27356
RightLeg  18.1187 -3.98195 -1.06327
RightFoot  -1.10482 0.271103 -3.0493
RightToes  0.00048216 0.542163 -0.142577
Spine  28.3802 -1.78912 2.45429
Spine1  4.20568 -2.74677 5.63589
HEad  -19.048 -9.70585 8.54012
LeftShoulder1  10.4554 -16.6173 -45.2866
LeftArm  1.44421 17.8135 -32.6017
LeftForeArm  137.217 -76.1366 -134.649
LeftHand  -0.25398 0.0180481 5.50724
RightShoulder  5.79039 10.2658 36.0696
RightArm  13.679 -17.5806 36.9187
RightForeArm  92.4523 71.3757 140.606
RightHand  -12.3955 23.5762 -47.2368
LeftUpLeg  10.8743 17.3408 21.6548
LeftLeg  14.8177 20.8031 4.26409
LeftFoot  -13.0526 0.060726 -0.844045
LeftToes  1.06245e-005 4.65856e-005 -8.18504e-006
330
root  27.5017 39.3129 -12.3344 1.7388 -56.2935 -4.63918
RightUpLeg  -15.9544 -30.2877 2.17475
RightLeg  18.9119 -4.9819 -1.31686
RightFoot  -2.93151 0.192511 -2.8654
RightToes  0.00048216 0.542163 -0.142577
Spine  28.8363 -2.32639 3.02649
Spine1  4.76154 -3.03716 5.33878
HEad  -17.973 -7.6993 7.61337
LeftShoulder1  10.5312 -16.6983 -45.4375
LeftArm  1.74642 16.6816 -31.7172
LeftForeArm  132.924 -76.7531 -131.422
LeftHand  -0.25398 0.0180481 5.50724
RightShoulder  5.83119 10.3708 36.0447
RightArm  13.6585 -16.7756 37.2275
RightForeArm  91.3684 71.6649 139.788
RightHand  -13.0957 24.466 -48.2639
LeftUpLeg  7.9758 19.0006 19.0411
LeftLeg  20.1858 8.29424 3.90965
LeftFoot  -13.3904 0.0408816 -2.27009
LeftToes  1.06245e-005 4.65856e-005 -8.18504e-006
331
root  26.2421 39.4862 -12.2162 1.595 -59.2701 -4.43688
RightUpLeg  -13.4026 -26.6485 1.38168
RightLeg  18.5132 -6.1947 -0.359105
RightFoot  -4.39701 0.103143 -2.2033
RightToes  0.00048216 0.542163 -0.142577
Spine  28.3899 -2.88214 3.86749
Spine1  4.98221 -3.21922 4.84838
HEad  -16.0915 -6.4841 6.26737
LeftShoulder1  10.5524 -16.7004 -45.5275
LeftArm  2.63978 15.6559 -31.1281
LeftForeArm  128.166 -77.425 -127.42
LeftHand  -0.25398 0.0180481 5.50724
RightShoulder  5.75407 10.1996 36.0081
RightArm  13.5157 -16.8628 37.1602
RightForeArm  89.9543 71.7028 139.543
RightHand  -13.8337 25.2903 -49.4449
LeftUpLeg  3.39371 15.5592 14.6575
LeftLeg  26.0282 6.08318 3.61079
LeftFoot  -13.0304 0.022943 -3.73233
LeftToes  1.06245e-005 4.65856e-005 -8.18504e-006
332
root  24.9148 39.7505 -12.0886 0.914886 -63.0148 -3.44324
RightUpLeg  -10.54 -20.6649 0.267103
RightLeg  17.0076 -8.56137 0.883595
RightFoot  -5.72068 0.0704384 -2.22553
RightToes  0.00048216 0.542163 -0.142577
Spine  27.4602 -2.6285 4.13019
Spine1  5.24682 -2.68837 4.02391
HEad  -14.2094 -5.52491 4.7337
LeftShoulder1  10.4643 -16.5352 -45.5203
LeftArm  3.33723 15.1208 -31.2281
LeftForeArm  125.752 -77.8229 -124.869
LeftHand  -0.25398 0.0180481 5.50724
RightShoulder  5.67509 10.0654 35.8454
RightArm  13.3894 -17.5288 36.7559
RightForeArm  88.6322 71.534 139.827
RightHand  -13.9792 25.2819 -49.9117
LeftUpLeg  -0.971252 13.8959 10.2763
LeftLeg  30.1482 7.41397 4.98164
LeftFoot  -12.5474 0.0380023 -3.44777
LeftToes  1.06245e-005 4.65856e-005 -8.18504e-006
